<svg viewBox="0 0 512 512" xmlns="http://www.w3.org/2000/svg"><text x="764.05994" y="240.45016"><tspan x="764.05994" y="240.45016"/></text><text transform="scale(4.0128 .2492)" x="387.48553" y="615.72418"/><text x="1345.33" y="160.45016"><tspan x="1345.33" y="160.45016"/></text><text transform="scale(4.0128 .2492)" x="532.33484" y="294.69586"/><text x="273.74991" y="-20.810837"><tspan x="273.74991" y="-20.810837"/></text><text transform="scale(4.0128 .2492)" x="265.29617" y="-432.66043"/><text x="1371.7999" y="-237.27983"><tspan x="1371.7999" y="-237.27983"/></text><text transform="scale(4.0128 .2492)" x="538.93481" y="-1301.326"/><text x="1953.0699" y="-317.28986"><tspan x="1953.0699" y="-317.28986"/></text><text transform="scale(4.0128 .2492)" x="683.78406" y="-1622.3643"/><text x="1563.95" y="-789.68988"><tspan x="1563.95" y="-789.68988"/></text><text transform="scale(4.0128 .2492)" x="586.81451" y="-3518.0144"/><text x="2145.21" y="-869.68988"><tspan x="2145.21" y="-869.68988"/></text><text transform="scale(4.0128 .2492)" x="731.66382" y="-3839.043"/><text x="312.40988" y="545.03015"><tspan x="312.40988" y="545.03015"/></text><text x="764.05994" y="240.45013"><tspan x="764.05994" y="240.45013"/></text><text transform="scale(4.0128 .2492)" x="387.48553" y="615.73529"/><text x="1345.33" y="160.45013"><tspan x="1345.33" y="160.45013"/></text><text transform="scale(4.0128 .2492)" x="532.33484" y="294.69714"/><text x="273.74991" y="-20.809847"><tspan x="273.74991" y="-20.809847"/></text><text transform="scale(4.0128 .2492)" x="265.29617" y="-432.64923"/><text x="1371.7999" y="-237.27985"><tspan x="1371.7999" y="-237.27985"/></text><text transform="scale(4.0128 .2492)" x="538.93481" y="-1301.3248"/><text x="1953.0699" y="-317.27985"><tspan x="1953.0699" y="-317.27985"/></text><text transform="scale(4.0128 .2492)" x="683.78406" y="-1622.3531"/><text x="1563.95" y="-789.67987"><tspan x="1563.95" y="-789.67987"/></text><text transform="scale(4.0128 .2492)" x="586.81451" y="-3518.0034"/><text x="2145.21" y="-869.68988"><tspan x="2145.21" y="-869.68988"/></text><text transform="scale(4.0128 .2492)" x="731.66382" y="-3839.0417"/><text x="312.40988" y="545.03021"><tspan x="312.40988" y="545.03021"/></text><text x="1351.9922" y="138.48407"><tspan x="1351.9922" y="138.48407"/></text><text transform="scale(4.0128 .2492)" x="533.99902" y="206.55257"/><text x="1933.2622" y="58.484062"><tspan x="1933.2622" y="58.484062"/></text><text transform="scale(4.0128 .2492)" x="678.84833" y="-114.4758"/><text x="861.68213" y="-122.77693"><tspan x="861.68213" y="-122.77693"/></text><text transform="scale(4.0128 .2492)" x="411.80963" y="-841.83209"/><text x="1959.7322" y="-339.24594"><tspan x="1959.7322" y="-339.24594"/></text><text transform="scale(4.0128 .2492)" x="685.44824" y="-1710.4977"/><text x="2541.0022" y="-419.25595"><tspan x="2541.0022" y="-419.25595"/></text><text transform="scale(4.0128 .2492)" x="830.29755" y="-2031.536"/><text x="2151.8821" y="-891.65601"><tspan x="2151.8821" y="-891.65601"/></text><text transform="scale(4.0128 .2492)" x="733.328" y="-3927.1863"/><text x="2733.1421" y="-971.65601"><tspan x="2733.1421" y="-971.65601"/></text><text transform="scale(4.0128 .2492)" x="878.17731" y="-4248.2148"/><text x="900.3421" y="443.06406"><tspan x="900.3421" y="443.06406"/></text><text x="764.05994" y="240.45016"><tspan x="764.05994" y="240.45016"/></text><text transform="scale(4.0128 .2492)" x="387.48553" y="615.72418"/><text x="1345.33" y="160.45016"><tspan x="1345.33" y="160.45016"/></text><text transform="scale(4.0128 .2492)" x="532.33484" y="294.69586"/><text x="273.74991" y="-20.810837"><tspan x="273.74991" y="-20.810837"/></text><text transform="scale(4.0128 .2492)" x="265.29617" y="-432.66043"/><text x="1371.7999" y="-237.27983"><tspan x="1371.7999" y="-237.27983"/></text><text transform="scale(4.0128 .2492)" x="538.93481" y="-1301.326"/><text x="1953.0699" y="-317.28986"><tspan x="1953.0699" y="-317.28986"/></text><text transform="scale(4.0128 .2492)" x="683.78406" y="-1622.3643"/><text x="1563.95" y="-789.68988"><tspan x="1563.95" y="-789.68988"/></text><text transform="scale(4.0128 .2492)" x="586.81451" y="-3518.0144"/><text x="2145.21" y="-869.68988"><tspan x="2145.21" y="-869.68988"/></text><text transform="scale(4.0128 .2492)" x="731.66382" y="-3839.043"/><text x="312.40988" y="545.03015"><tspan x="312.40988" y="545.03015"/></text><text x="-843.53326" y="97.263725"><tspan x="-843.53326" y="97.263725"/></text><text transform="scale(4.0128 .2492)" x="-13.128739" y="41.142727"/><text x="-262.26331" y="17.263718"><tspan x="-262.26331" y="17.263718"/></text><text transform="scale(4.0128 .2492)" x="131.72054" y="-279.88565"/><text x="-1333.8433" y="-163.99727"><tspan x="-1333.8433" y="-163.99727"/></text><text transform="scale(4.0128 .2492)" x="-135.31812" y="-1007.2419"/><text x="-235.79332" y="-380.46628"><tspan x="-235.79332" y="-380.46628"/></text><text transform="scale(4.0128 .2492)" x="138.32048" y="-1875.9075"/><text x="345.47665" y="-460.47629"><tspan x="345.47665" y="-460.47629"/></text><text transform="scale(4.0128 .2492)" x="283.16977" y="-2196.9458"/><text x="-43.643269" y="-932.87634"><tspan x="-43.643269" y="-932.87634"/></text><text transform="scale(4.0128 .2492)" x="186.20024" y="-4092.5959"/><text x="537.6167" y="-1012.8763"><tspan x="537.6167" y="-1012.8763"/></text><text transform="scale(4.0128 .2492)" x="331.04956" y="-4413.6245"/><text x="-1295.1833" y="401.84372"><tspan x="-1295.1833" y="401.84372"/></text><text x="-1724.0884" y="-95.230324"><tspan x="-1724.0884" y="-95.230324"/></text><text transform="scale(4.0128 .2492)" x="-111.9175" y="-945.0332"/><text x="-2371.8547" y="-863.18207"><tspan x="-2371.8547" y="-863.18207"/></text><text transform="scale(4.0128 .2492)" x="-273.34106" y="-4026.6975"/><text x="-1665.5137" y="-1018.8139"><tspan x="-1665.5137" y="-1018.8139"/></text><text transform="scale(4.0128 .2492)" x="-97.320663" y="-4651.2222"/><text x="-767.60107" y="192.72136"><tspan x="-767.60107" y="192.72136"/></text><text transform="scale(4.0128 .2492)" x="5.793669" y="424.19708"/><text x="-186.33101" y="112.72135"><tspan x="-186.33101" y="112.72135"/></text><text transform="scale(4.0128 .2492)" x="150.64293" y="103.16872"/><text x="-1257.9111" y="-68.539642"><tspan x="-1257.9111" y="-68.539642"/></text><text transform="scale(4.0128 .2492)" x="-116.3957" y="-624.18762"/><text x="-159.86104" y="-285.00867"><tspan x="-159.86104" y="-285.00867"/></text><text transform="scale(4.0128 .2492)" x="157.24287" y="-1492.8531"/><text x="421.40891" y="-365.01865"><tspan x="421.40891" y="-365.01865"/></text><text transform="scale(4.0128 .2492)" x="302.09219" y="-1813.8915"/><text x="32.288982" y="-837.4187"><tspan x="32.288982" y="-837.4187"/></text><text transform="scale(4.0128 .2492)" x="205.12263" y="-3709.5417"/><text x="613.54895" y="-917.4187"><tspan x="613.54895" y="-917.4187"/></text><text transform="scale(4.0128 .2492)" x="349.97192" y="-4030.5701"/><text x="-1219.2511" y="497.30136"><tspan x="-1219.2511" y="497.30136"/></text><text x="-562.20642" y="695.42023"><tspan x="-562.20642" y="695.42023"/></text><text transform="scale(4.0128 .2492)" x="56.978271" y="2441.4377"/><text x="19.06358" y="615.42023"><tspan x="19.06358" y="615.42023"/></text><text transform="scale(4.0128 .2492)" x="201.82753" y="2120.4094"/><text x="-1052.5165" y="434.15924"><tspan x="-1052.5165" y="434.15924"/></text><text transform="scale(4.0128 .2492)" x="-65.211098" y="1393.0529"/><text x="45.53355" y="217.69026"><tspan x="45.53355" y="217.69026"/></text><text transform="scale(4.0128 .2492)" x="208.42747" y="524.38727"/><text x="626.80359" y="137.68024"><tspan x="626.80359" y="137.68024"/></text><text transform="scale(4.0128 .2492)" x="353.27679" y="203.34898"/><text x="237.68358" y="-334.71979"><tspan x="237.68358" y="-334.71979"/></text><text transform="scale(4.0128 .2492)" x="256.30725" y="-1692.3014"/><text x="818.9436" y="-414.71979"><tspan x="818.9436" y="-414.71979"/></text><text transform="scale(4.0128 .2492)" x="401.15656" y="-2013.3297"/><text x="-1013.8564" y="1000.0002"><tspan x="-1013.8564" y="1000.0002"/></text><text x="-1505.9353" y="617.31848"><tspan x="-1505.9353" y="617.31848"/></text><text transform="scale(4.0128 .2492)" x="-178.20015" y="2128.0295"/><text x="-924.66522" y="537.31848"><tspan x="-924.66522" y="537.31848"/></text><text transform="scale(4.0128 .2492)" x="-33.350876" y="1807.001"/><text x="-1996.2452" y="356.05753"><tspan x="-1996.2452" y="356.05753"/></text><text transform="scale(4.0128 .2492)" x="-300.38953" y="1079.6447"/><text x="-898.19525" y="139.58856"><tspan x="-898.19525" y="139.58856"/></text><text transform="scale(4.0128 .2492)" x="-26.750961" y="210.97914"/><text x="-316.92526" y="59.578552"><tspan x="-316.92526" y="59.578552"/></text><text transform="scale(4.0128 .2492)" x="118.09834" y="-110.05908"/><text x="-706.04523" y="-412.82147"><tspan x="-706.04523" y="-412.82147"/></text><text transform="scale(4.0128 .2492)" x="21.128798" y="-2005.7095"/><text x="-124.78518" y="-492.82147"><tspan x="-124.78518" y="-492.82147"/></text><text transform="scale(4.0128 .2492)" x="165.9781" y="-2326.7378"/><text x="-1957.5853" y="921.8985"><tspan x="-1957.5853" y="921.8985"/></text><text x="-1258.4823" y="692.1637"><tspan x="-1258.4823" y="692.1637"/></text><text transform="scale(4.0128 .2492)" x="-116.53455" y="2428.3699"/><text x="-677.21228" y="612.1637"><tspan x="-677.21228" y="612.1637"/></text><text transform="scale(4.0128 .2492)" x="28.314713" y="2107.3416"/><text x="-1748.7922" y="430.90271"><tspan x="-1748.7922" y="430.90271"/></text><text transform="scale(4.0128 .2492)" x="-238.72394" y="1379.985"/><text x="-650.74231" y="214.43373"><tspan x="-650.74231" y="214.43373"/></text><text transform="scale(4.0128 .2492)" x="34.914658" y="511.31946"/><text x="-69.472313" y="134.42372"><tspan x="-69.472313" y="134.42372"/></text><text transform="scale(4.0128 .2492)" x="179.76393" y="190.28114"/><text x="-458.59232" y="-337.97632"><tspan x="-458.59232" y="-337.97632"/></text><text transform="scale(4.0128 .2492)" x="82.794418" y="-1705.3691"/><text x="122.6677" y="-417.97632"><tspan x="122.6677" y="-417.97632"/></text><text transform="scale(4.0128 .2492)" x="227.64369" y="-2026.3976"/><text x="-1710.1323" y="996.74365"><tspan x="-1710.1323" y="996.74365"/></text><text x="-2124.5232" y="9.907349"><tspan x="-2124.5232" y="9.907349"/></text><text transform="scale(4.0128 .2492)" x="-332.35306" y="-309.40274"/><text x="-1543.2532" y="-70.092651"><tspan x="-1543.2532" y="-70.092651"/></text><text transform="scale(4.0128 .2492)" x="-187.50378" y="-630.43109"/><text x="-2614.8333" y="-251.35365"><tspan x="-2614.8333" y="-251.35365"/></text><text transform="scale(4.0128 .2492)" x="-454.54245" y="-1357.7874"/><text x="-1516.7832" y="-467.82266"><tspan x="-1516.7832" y="-467.82266"/></text><text transform="scale(4.0128 .2492)" x="-180.90384" y="-2226.4529"/><text x="-935.51318" y="-547.8327"><tspan x="-935.51318" y="-547.8327"/></text><text transform="scale(4.0128 .2492)" x="-36.054565" y="-2547.4912"/><text x="-1324.6332" y="-1020.2327"><tspan x="-1324.6332" y="-1020.2327"/></text><text transform="scale(4.0128 .2492)" x="-133.02408" y="-4443.1416"/><text x="-743.37323" y="-1100.2325"><tspan x="-743.37323" y="-1100.2325"/></text><text transform="scale(4.0128 .2492)" x="11.825225" y="-4764.1699"/><text x="-2576.1733" y="314.48734"><tspan x="-2576.1733" y="314.48734"/></text><text x="-3005.0781" y="-182.5867"><tspan x="-3005.0781" y="-182.5867"/></text><text transform="scale(4.0128 .2492)" x="-431.14056" y="-1295.5801"/><text x="-3652.8447" y="-950.53845"><tspan x="-3652.8447" y="-950.53845"/></text><text transform="scale(4.0128 .2492)" x="-592.56415" y="-4377.2441"/><text x="-2946.5034" y="-1106.1702"><tspan x="-2946.5034" y="-1106.1702"/></text><text transform="scale(4.0128 .2492)" x="-416.54373" y="-5001.769"/><text x="-2473.8115" y="179.12769"><tspan x="-2473.8115" y="179.12769"/></text><text transform="scale(4.0128 .2492)" x="-419.39612" y="369.64807"/><text x="-1892.5414" y="99.127693"><tspan x="-1892.5414" y="99.127693"/></text><text transform="scale(4.0128 .2492)" x="-274.54684" y="48.619778"/><text x="-2964.1213" y="-82.133308"><tspan x="-2964.1213" y="-82.133308"/></text><text transform="scale(4.0128 .2492)" x="-541.58551" y="-678.73657"/><text x="-1866.0714" y="-298.60233"><tspan x="-1866.0714" y="-298.60233"/></text><text transform="scale(4.0128 .2492)" x="-267.94693" y="-1547.4021"/><text x="-1284.8014" y="-378.61234"><tspan x="-1284.8014" y="-378.61234"/></text><text transform="scale(4.0128 .2492)" x="-123.09763" y="-1868.4403"/><text x="-1673.9214" y="-851.01239"><tspan x="-1673.9214" y="-851.01239"/></text><text transform="scale(4.0128 .2492)" x="-220.06714" y="-3764.0906"/><text x="-1092.6614" y="-931.01239"><tspan x="-1092.6614" y="-931.01239"/></text><text transform="scale(4.0128 .2492)" x="-75.217865" y="-4085.1189"/><text x="-2925.4614" y="483.70767"><tspan x="-2925.4614" y="483.70767"/></text><text x="764.05377" y="240.4323"><tspan x="764.05377" y="240.4323"/></text><text transform="scale(4.0128 .2492)" x="387.49582" y="615.73248"/><text x="1345.3333" y="160.44568"><tspan x="1345.3333" y="160.44568"/></text><text transform="scale(4.0128 .2492)" x="532.34552" y="294.69278"/><text x="273.73093" y="-20.812193"><tspan x="273.73093" y="-20.812193"/></text><text transform="scale(4.0128 .2492)" x="265.28778" y="-432.65579"/><text x="1371.8018" y="-237.27635"><tspan x="1371.8018" y="-237.27635"/></text><text transform="scale(4.0128 .2492)" x="538.93597" y="-1301.3285"/><text x="1953.0813" y="-317.28424"><tspan x="1953.0813" y="-317.28424"/></text><text transform="scale(4.0128 .2492)" x="683.78564" y="-1622.3505"/><text x="1563.9553" y="-789.67792"><tspan x="1563.9553" y="-789.67792"/></text><text transform="scale(4.0128 .2492)" x="586.80585" y="-3518.0098"/><text x="2145.1995" y="-869.68579"><tspan x="2145.1995" y="-869.68579"/></text><text transform="scale(4.0128 .2492)" x="731.65552" y="-3839.032"/><text x="312.3884" y="545.01495"><tspan x="312.3884" y="545.01495"/></text><text x="729.64001" y="231.35997"><tspan x="729.64001" y="231.35997"/></text><text transform="scale(4.0128 .2492)" x="378.90805" y="579.25812"/><text x="1310.91" y="151.35997"><tspan x="1310.91" y="151.35997"/></text><text transform="scale(4.0128 .2492)" x="523.75732" y="258.21997"/><text x="239.33" y="-29.900009"><tspan x="239.33" y="-29.900009"/></text><text transform="scale(4.0128 .2492)" x="256.71869" y="-469.1264"/><text x="1337.38" y="-246.37001"><tspan x="1337.38" y="-246.37001"/></text><text transform="scale(4.0128 .2492)" x="530.3573" y="-1337.802"/><text x="1918.65" y="-326.37"><tspan x="1918.65" y="-326.37"/></text><text transform="scale(4.0128 .2492)" x="675.20654" y="-1658.8303"/><text x="1529.53" y="-798.77002"><tspan x="1529.53" y="-798.77002"/></text><text transform="scale(4.0128 .2492)" x="578.237" y="-3554.4807"/><text x="2110.79" y="-878.78003"><tspan x="2110.79" y="-878.78003"/></text><text transform="scale(4.0128 .2492)" x="723.0863" y="-3875.519"/><text x="277.98999" y="535.94006"><tspan x="277.98999" y="535.94006"/></text><text x="729.64001" y="231.35997"><tspan x="729.64001" y="231.35997"/></text><text transform="scale(4.0128 .2492)" x="378.90805" y="579.25812"/><text x="1310.91" y="151.35997"><tspan x="1310.91" y="151.35997"/></text><text transform="scale(4.0128 .2492)" x="523.75732" y="258.21997"/><text x="239.33" y="-29.900009"><tspan x="239.33" y="-29.900009"/></text><text transform="scale(4.0128 .2492)" x="256.71869" y="-469.1264"/><text x="1337.38" y="-246.37001"><tspan x="1337.38" y="-246.37001"/></text><text transform="scale(4.0128 .2492)" x="530.3573" y="-1337.802"/><text x="1918.65" y="-326.37"><tspan x="1918.65" y="-326.37"/></text><text transform="scale(4.0128 .2492)" x="675.20654" y="-1658.8303"/><text x="1529.53" y="-798.77002"><tspan x="1529.53" y="-798.77002"/></text><text transform="scale(4.0128 .2492)" x="578.237" y="-3554.4807"/><text x="2110.79" y="-878.78003"><tspan x="2110.79" y="-878.78003"/></text><text transform="scale(4.0128 .2492)" x="723.0863" y="-3875.519"/><text x="277.98999" y="535.94006"><tspan x="277.98999" y="535.94006"/></text><text x="729.64001" y="231.35997"><tspan x="729.64001" y="231.35997"/></text><text transform="scale(4.0128 .2492)" x="378.90805" y="579.25812"/><text x="1310.91" y="151.35997"><tspan x="1310.91" y="151.35997"/></text><text transform="scale(4.0128 .2492)" x="523.75732" y="258.21997"/><text x="239.33" y="-29.900009"><tspan x="239.33" y="-29.900009"/></text><text transform="scale(4.0128 .2492)" x="256.71869" y="-469.1264"/><text x="1337.38" y="-246.37001"><tspan x="1337.38" y="-246.37001"/></text><text transform="scale(4.0128 .2492)" x="530.3573" y="-1337.802"/><text x="1918.65" y="-326.37"><tspan x="1918.65" y="-326.37"/></text><text transform="scale(4.0128 .2492)" x="675.20654" y="-1658.8303"/><text x="1529.53" y="-798.77002"><tspan x="1529.53" y="-798.77002"/></text><text transform="scale(4.0128 .2492)" x="578.237" y="-3554.4807"/><text x="2110.79" y="-878.78003"><tspan x="2110.79" y="-878.78003"/></text><text transform="scale(4.0128 .2492)" x="723.0863" y="-3875.519"/><text x="277.98999" y="535.94006"><tspan x="277.98999" y="535.94006"/></text><g fill-rule="evenodd"><path d="m471.95 253.05c0 120.9-98.006 218.91-218.91 218.91s-218.91-98.006-218.91-218.91 98.006-218.91 218.91-218.91 218.91 98.006 218.91 218.91" fill="#3392bb"/><path d="m256 1c-140.83 0-255 114.17-255 255s114.17 255 255 255 255-114.17 255-255-114.17-255-255-255m8.827 44.931c120.9 0 218.9 98 218.9 218.9s-98 218.9-218.9 218.9-218.93-98-218.93-218.9 98.03-218.9 218.93-218.9" fill-opacity=".067"/><path d="m256 4.43c-138.94 0-251.57 112.63-251.57 251.57s112.63 251.57 251.57 251.57 251.57-112.63 251.57-251.57-112.63-251.57-251.57-251.57m5.885 38.556c120.9 0 218.9 98 218.9 218.9s-98 218.9-218.9 218.9-218.93-98-218.93-218.9 98.03-218.9 218.93-218.9" fill-opacity=".129"/><path d="m256 8.36c-136.77 0-247.64 110.87-247.64 247.64s110.87 247.64 247.64 247.64 247.64-110.87 247.64-247.64-110.87-247.64-247.64-247.64m2.942 31.691c120.9 0 218.9 98 218.9 218.9s-98 218.9-218.9 218.9-218.93-98-218.93-218.9 98.03-218.9 218.93-218.9" fill-opacity=".129"/><path d="m253.04 7.86c-135.42 0-245.19 109.78-245.19 245.19 0 135.42 109.78 245.19 245.19 245.19 135.42 0 245.19-109.78 245.19-245.19 0-135.42-109.78-245.19-245.19-245.19zm0 26.297c120.9 0 218.9 98 218.9 218.9s-98 218.9-218.9 218.9-218.93-98-218.93-218.9 98.03-218.9 218.93-218.9z" fill="#fff" stroke="#000" stroke-opacity=".31" stroke-width="4.904"/></g><text x="729.64001" y="231.35997"><tspan x="729.64001" y="231.35997"/></text><text transform="scale(4.0128 .2492)" x="378.90805" y="579.25812"/><text x="1310.91" y="151.35997"><tspan x="1310.91" y="151.35997"/></text><text transform="scale(4.0128 .2492)" x="523.75732" y="258.21997"/><text x="239.33" y="-29.900009"><tspan x="239.33" y="-29.900009"/></text><text transform="scale(4.0128 .2492)" x="256.71869" y="-469.1264"/><text x="1337.38" y="-246.37001"><tspan x="1337.38" y="-246.37001"/></text><text transform="scale(4.0128 .2492)" x="530.3573" y="-1337.802"/><text x="1918.65" y="-326.37"><tspan x="1918.65" y="-326.37"/></text><text transform="scale(4.0128 .2492)" x="675.20654" y="-1658.8303"/><text x="1529.53" y="-798.77002"><tspan x="1529.53" y="-798.77002"/></text><text transform="scale(4.0128 .2492)" x="578.237" y="-3554.4807"/><text x="2110.79" y="-878.78003"><tspan x="2110.79" y="-878.78003"/></text><text transform="scale(4.0128 .2492)" x="723.0863" y="-3875.519"/><text x="277.98999" y="535.94006"><tspan x="277.98999" y="535.94006"/></text><path d="m167.35 117.6c-6.76 10.15-8.37 31.47-3.2 44.5-18.25 15.52-21.15 57.19-12.78 83.43-27.37.05-55.702-.84-75.897 6.36l10.425 10.42c-3.302.94-6.522 1.96-9.63 3.08l204.78 204.79c107.67-13.75 190.9-105.72 190.9-217.13 0-.88-.03-1.75-.04-2.63l-132.82-132.82c-9.78.35-17.02 1.79-25.56 5.56-6.57 2.9-14.02 10.49-20.78 11.12-6.89.65-16.4-3.46-25.55-3.97-21.75-1.19-38.44 1.05-54.32 5.57-12.8-8.49-25.16-17.37-45.53-18.28z" opacity=".25"/><path d="m339.08 117.61c4.6938 10.659 7.7342 28.363 3.1978 41.322 18.554 15.842 24.929 54.353 15.975 85.824 26.446 2.0176 57.942-.97109 78.279 7.1446-19.008-2.4433-44.967-7.2373-69.485-5.5678-4.6452.31687-11.53-.17675-11.193 6.3589 28.383 2.231 56.584 4.6539 79.885 11.931-23.112-3.7755-51.162-9.5244-79.885-10.326-11.866 23.408-35.729 34.915-68.689 37.338 3.5427 7.7062 10.326 10.643 11.985 23.043 2.4714 18.526-3.8671 45.655 2.3873 58.006 3.0006 5.917 7.8915 6.0733 11.188 11.132-8.0715 9.5524-28.087-1.0713-30.361-11.132-3.9037-17.231 5.945-43.944-4.7864-55.623.75768 18.791-4.4448 45.188.79863 61.973 2.0661 6.6036 8.0316 9.1504 6.3912 15.1-37.518 3.811-21.84-48.554-27.97-79.465-5.6605.40094-3.173 8.4768-3.1935 11.92-.16058 30.189 6.1779 71.586-26.357 67.545-.95061-6.3428 4.365-8.5005 6.3902-14.294 5.9332-16.986-1.1112-42.292 1.6091-62.792-12.416 9.3595 1.3041 42.044-6.3902 58.804-4.4329 9.644-18.719 13.841-29.555 9.5362 1.4119-7.1813 8.826-6.0216 11.974-12.714 4.3974-9.3271.0323-22.763 1.6005-36.551-22.984 4.586-40.811-.66607-49.537-15.1-3.9037-6.4775-4.8705-14.119-9.588-19.862-4.6938-5.7446-12.196-6.5206-14.37-14.298 28.463-6.8526 29.555 29.294 55.118 30.189 7.8387.28454 11.92-2.2623 19.168-3.9673 2.0295-9.1148 6.3751-15.91 12.781-20.672-31.809-4.3542-58.079-14.258-70.293-38.132-28.917 1.4238-55.377 5.2833-79.885 11.116 22.245-8.0801 49.686-10.976 79.088-11.931-1.7331-10.415-16.926-7.5553-26.357-7.1489-17.527.77816-39.592 2.9564-53.525 5.5721 20.196-7.2007 48.533-6.3029 75.898-6.3589-8.369-26.236-5.4676-67.911 12.781-83.431-5.1712-13.03-3.5664-34.352 3.1935-44.502 20.375.91505 32.732 9.7971 45.536 18.281 15.875-4.5138 32.571-6.7599 54.32-5.5646 9.1471.50548 18.663 4.6172 25.551 3.9673 6.7599-.63373 14.21-8.2202 20.773-11.116 8.549-3.7755 15.782-5.2154 25.563-5.5678" fill="#fff"/></svg>